<?xml version="1.0" encoding="utf-8"?>
<svg xmlns="http://www.w3.org/2000/svg" xml:space="preserve" width="410.316" height="409.549">
  <path d="M409.282 328.563s-2.202-3.963-3.964 2.202l-2.643 6.166-7.487-.439 6.606-7.488s-.441-3.963-4.845-1.762l-3.523-18.059s-.881-2.202-2.643-1.32c0 0-.439-3.083-3.523.44l-7.928 8.368-7.488 2.202s-7.046-1.762-10.129.44c0 0-3.965.44-7.929-1.762s-36.115-41.841-41.841-47.127c0 0-10.13-42.282-9.25-56.376.881-14.094 4.404-64.303-18.938-73.552s-30.831-13.654-30.831-13.654-18.058-10.129-19.819-16.736v-11.45s6.166-7.047 6.606-20.26c0 0 6.166-.879 8.369-11.45 0 0 7.486-17.617-1.322-12.772l-2.201-2.203s2.642-18.058 1.32-24.665C244.559 20.7 241.035-.44 214.168 0c-26.867.44-38.758 18.058-35.234 43.163v9.249s-6.166-5.285-4.404 3.964l4.844 18.499s2.643 7.047 4.405 2.202l1.322 13.213s.439 3.964 3.963 7.488c0 0 2.643 12.332-3.082 17.177-5.727 4.845-21.142 13.652-21.142 13.652l-25.545 11.011s-24.224 3.523-19.819 62.102l-4.845 58.578-3.964 9.689s-44.925 54.614-55.055 59.899l-9.689-1.321-11.011-.44-8.809-2.643-7.487-6.166s-1.762-1.761-2.643.44c0 0-4.404.44-3.964 5.726l.44 16.736 1.321 4.404-3.523.441-3.523-7.047-1.321-3.523s-2.643-2.644-4.404-.882 0 3.964 0 3.964l2.643 8.368s-4.404.881-3.523 3.523c.881 2.644 3.523 1.762 5.285 2.202 1.762.441 25.105 7.047 25.105 7.047l-8.369 8.369-6.166 3.083s-3.083 3.965.881 4.404l10.57-3.523 9.25-7.048 12.772-8.809s-11.011 9.689-6.166 23.784 14.975 18.498 19.379 20.7c4.404 2.203 6.166 8.809 28.628 6.606 0 0 70.029 4.405 122.44-12.332l16.737-1.321s60.779 24.664 96.896 10.57l6.607-4.844 7.487-1.322 13.653-10.13s23.783-6.166 18.498-33.474l12.773 6.607 1.762-3.084-10.13-11.011s7.046 2.643 10.13-2.202l18.058-.881c0 .002 6.606-8.365 3.083-16.294zM23.459 344.42c-4.404-.44-4.845-13.213-4.845-13.213 11.011 0 4.845 13.213 4.845 13.213zm121.121-23.343s-23.343 3.964-27.748 7.047-17.177-2.202-17.177-2.202 34.794-30.391 40.52-36.997c5.726-6.607 12.773-46.687 12.773-46.687l2.643 32.152-11.011 46.687zm136.975.441-9.25-62.103 7.929 27.308c7.487 22.463 64.744 49.77 64.744 49.77-15.415-.442-63.423-14.975-63.423-14.975zm107.027-3.524.44 11.451c-9.249-3.523-.44-11.451-.44-11.451z"/>
</svg>