<svg xmlns="http://www.w3.org/2000/svg" xml:space="preserve" viewBox="0 0 24 24">
  <path d="M21.512 12.394s-1.322-2.154-1.549-2.646c-.228-.491-.152-1.209 0-1.738.15-.529 0-1.285 0-1.285C18.64.907 13.501 0 10.969 0S3.563 1.02 2.467 6.575c-1.082 5.485 1.765 8.323 2.834 10.088.443.732.283 2.79.043 4.063l8.433 3.074c.113-.588.178-1.066.178-1.431 0-2.91 2.154-2.646 4.119-2.759s1.983-.699 1.965-1.247c-.02-.548.151-.907.51-1.454.359-.549-.207-.813-.207-.813.642-.039.227-.756.227-.756s-.604-1.135.566-1.398c1.171-.263.377-1.548.377-1.548zm-11.261 1.398C3.072 14.17 3.563 8.2 3.563 8.2c.643-6.311 5.744-6.727 5.744-6.727 8.086-.906 9.22 4.043 9.446 5.895.182 1.481-1.322 6.046-8.502 6.424z"/>
  <path d="M12.297 7.397c-.016-.111-.102-.206-.219-.226-.038-.007-.075-.006-.11.003l-.264.042c-.065-.419-.211-.814-.425-1.168l.229-.139c.034-.017.063-.039.086-.068.077-.091.083-.219.024-.313-.185-.255-.404-.492-.655-.703-.251-.212-.523-.385-.806-.522-.105-.041-.229-.016-.305.076-.025.028-.043.062-.053.096l-.096.247c-.191-.074-.392-.131-.601-.168-.209-.037-.418-.052-.623-.049l-.006-.264c.002-.036-.002-.073-.015-.109-.041-.112-.146-.178-.259-.176-.315.032-.63.102-.938.214-.309.111-.595.26-.857.436-.087.07-.126.191-.085.303.013.036.032.068.057.094l.169.209c-.322.259-.595.58-.799.952l-.235-.13c-.031-.021-.064-.035-.101-.042-.118-.021-.231.039-.284.137-.129.288-.224.596-.282.919-.057.324-.073.646-.05.959.016.112.103.206.22.227.037.006.074.005.109-.004l.265-.042c.064.419.21.815.425 1.168l-.23.138c-.033.018-.062.04-.086.069-.077.091-.082.219-.024.314.185.254.403.492.655.703.25.211.522.384.805.522.105.042.229.015.306-.077.024-.03.042-.063.052-.097l.096-.247c.191.076.392.132.602.169.21.037.418.053.623.047l.005.265c-.001.037.002.075.016.109.04.112.147.179.26.177.313-.032.627-.102.937-.215.309-.112.595-.26.856-.436.088-.069.127-.191.085-.303-.013-.036-.033-.066-.058-.094l-.167-.208c.322-.259.596-.58.8-.951l.234.129c.03.02.064.034.103.041.116.021.229-.038.283-.137.127-.287.223-.595.28-.918.058-.325.073-.647.051-.961v.002zm-2.008.614c-.17.96-1.09 1.605-2.051 1.435-.961-.17-1.605-1.09-1.436-2.051s1.091-1.606 2.052-1.437c.96.17 1.604 1.093 1.435 2.053zm-3.355 3.093-.001-.001zm1.96.346-.001-.001h-.001z"/>
  <circle cx="8.545" cy="7.702" r="1.001"/>
  <path d="M16.252 4.29c-.039-.049-.107-.069-.17-.047-.021.008-.037.019-.052.034l-.18.146c-.068-.083-.146-.164-.233-.236-.088-.073-.181-.133-.276-.185l.108-.204c.012-.018.019-.036.022-.058.012-.064-.022-.128-.078-.157-.161-.07-.334-.123-.515-.153-.182-.029-.361-.037-.536-.021-.063.009-.114.057-.126.124-.003.021-.002.042.003.06l.038.23c-.218.035-.428.113-.62.232l-.123-.198c-.009-.018-.021-.034-.037-.048-.053-.043-.122-.045-.177-.011h.001c-.142.104-.272.228-.39.37-.117.142-.213.295-.288.453-.022.059-.005.126.046.169.016.013.033.024.054.028l.216.083c-.077.21-.114.431-.107.651l-.231.006c-.02 0-.04.002-.061.009-.062.024-.1.084-.096.147.018.175.061.35.124.522.064.172.149.332.248.476.04.049.108.07.171.046.018-.008.036-.019.05-.033l.179-.146c.069.084.147.163.235.235.088.072.181.134.275.185l-.106.206c-.011.017-.018.038-.021.057-.012.066.021.128.077.158.161.069.334.123.516.152.181.029.361.038.537.022.062-.009.113-.057.125-.123.003-.021.001-.042-.005-.062l-.037-.228c.217-.036.429-.113.62-.23l.121.195c.009.02.023.035.039.048.051.042.121.046.174.011v.001c.142-.104.273-.228.391-.369.117-.143.212-.295.286-.455.023-.058.008-.127-.044-.169-.016-.013-.034-.022-.055-.029l-.217-.08c.08-.213.115-.435.107-.655l.233-.008c.021.002.041 0 .061-.008.063-.023.101-.084.098-.147-.019-.173-.062-.35-.126-.521-.064-.172-.148-.331-.248-.475zm-.917 1.872c-.363.442-1.017.504-1.459.14-.442-.364-.508-1.017-.144-1.458.364-.443 1.019-.506 1.461-.142s.507 1.018.142 1.46zm.283 3.015c-.034-.043-.093-.061-.146-.041-.018.006-.031.015-.044.029l-.154.125c-.059-.072-.126-.141-.2-.203-.076-.062-.155-.114-.237-.158l.093-.176c.01-.015.017-.03.02-.049.009-.056-.02-.111-.068-.135-.138-.061-.285-.105-.44-.132-.156-.025-.312-.031-.461-.018-.054.007-.098.049-.107.106-.003.018-.002.036.002.051l.032.198c-.188.03-.367.097-.531.2l-.105-.17c-.009-.016-.02-.03-.033-.041-.045-.037-.105-.039-.151-.01-.12.089-.233.195-.334.317-.1.122-.183.253-.247.39-.02.05-.005.108.04.145.014.011.028.021.046.024l.186.071c-.067.18-.098.37-.092.559l-.199.006c-.017 0-.034.001-.052.007-.054.021-.085.072-.082.126.015.149.051.3.106.448.055.148.128.284.213.409.035.042.093.06.146.04.017-.007.032-.017.044-.029l.153-.125c.06.071.126.14.202.202.075.062.155.115.236.159l-.093.175c-.01.015-.016.032-.019.049-.01.057.019.11.065.136.14.059.287.105.443.13.156.024.311.032.46.019.054-.007.099-.049.107-.105.004-.019.002-.036-.003-.053l-.031-.196c.186-.03.367-.097.531-.197l.104.167c.008.018.021.03.034.042.043.036.104.039.148.01.122-.089.235-.195.335-.316.102-.122.184-.253.246-.39.021-.05.007-.11-.037-.146-.014-.011-.029-.019-.047-.024l-.187-.068c.068-.183.1-.374.093-.563l.199-.006c.019.001.036 0 .053-.007.054-.02.086-.072.084-.126-.017-.149-.053-.3-.108-.448-.055-.148-.128-.285-.213-.408zm-.787 1.607c-.313.379-.873.433-1.253.121-.381-.313-.436-.874-.123-1.253.313-.381.874-.436 1.255-.122.379.312.434.874.121 1.254zm.37.896H15.2v.001z"/>
</svg>